<mxfile host="app.diagrams.net" agent="Mozilla/5.0 (Windows NT 10.0; Win64; x64) AppleWebKit/537.36 (KHTML, like Gecko) Chrome/132.0.0.0 Safari/537.36" version="26.0.10">
  <diagram name="Сторінка-1" id="wtEqVEpmYyyORRaWSU-o">
    <mxGraphModel dx="1254" dy="638" grid="1" gridSize="10" guides="1" tooltips="1" connect="1" arrows="1" fold="1" page="1" pageScale="1" pageWidth="3300" pageHeight="4681" math="0" shadow="0">
      <root>
        <mxCell id="0" />
        <mxCell id="1" parent="0" />
        <mxCell id="kFLR4k8QPGNa0tkSeMhw-87" value="" style="rounded=0;whiteSpace=wrap;html=1;" vertex="1" parent="1">
          <mxGeometry x="790" y="340" width="480" height="620" as="geometry" />
        </mxCell>
        <mxCell id="kFLR4k8QPGNa0tkSeMhw-50" style="rounded=0;orthogonalLoop=1;jettySize=auto;html=1;entryX=0;entryY=0.5;entryDx=0;entryDy=0;endArrow=block;startFill=0;endFill=1;" edge="1" parent="1" source="kFLR4k8QPGNa0tkSeMhw-61" target="kFLR4k8QPGNa0tkSeMhw-47">
          <mxGeometry relative="1" as="geometry">
            <mxPoint x="740" y="380" as="sourcePoint" />
          </mxGeometry>
        </mxCell>
        <mxCell id="kFLR4k8QPGNa0tkSeMhw-51" style="rounded=0;orthogonalLoop=1;jettySize=auto;html=1;entryX=0;entryY=0.5;entryDx=0;entryDy=0;endArrow=block;startFill=0;endFill=1;" edge="1" parent="1" source="kFLR4k8QPGNa0tkSeMhw-61" target="kFLR4k8QPGNa0tkSeMhw-48">
          <mxGeometry relative="1" as="geometry" />
        </mxCell>
        <mxCell id="kFLR4k8QPGNa0tkSeMhw-52" style="rounded=0;orthogonalLoop=1;jettySize=auto;html=1;entryX=0;entryY=0.5;entryDx=0;entryDy=0;endArrow=block;startFill=0;endFill=1;" edge="1" parent="1" source="kFLR4k8QPGNa0tkSeMhw-46" target="kFLR4k8QPGNa0tkSeMhw-49">
          <mxGeometry relative="1" as="geometry" />
        </mxCell>
        <mxCell id="kFLR4k8QPGNa0tkSeMhw-81" style="rounded=0;orthogonalLoop=1;jettySize=auto;html=1;entryX=0;entryY=0.5;entryDx=0;entryDy=0;endArrow=block;endFill=1;" edge="1" parent="1" source="kFLR4k8QPGNa0tkSeMhw-61" target="kFLR4k8QPGNa0tkSeMhw-80">
          <mxGeometry relative="1" as="geometry" />
        </mxCell>
        <mxCell id="kFLR4k8QPGNa0tkSeMhw-86" style="rounded=0;orthogonalLoop=1;jettySize=auto;html=1;entryX=0;entryY=0.5;entryDx=0;entryDy=0;endArrow=block;endFill=1;" edge="1" parent="1" source="kFLR4k8QPGNa0tkSeMhw-46" target="kFLR4k8QPGNa0tkSeMhw-85">
          <mxGeometry relative="1" as="geometry" />
        </mxCell>
        <mxCell id="kFLR4k8QPGNa0tkSeMhw-95" style="rounded=0;orthogonalLoop=1;jettySize=auto;html=1;entryX=0;entryY=0.5;entryDx=0;entryDy=0;endArrow=block;endFill=1;" edge="1" parent="1" source="kFLR4k8QPGNa0tkSeMhw-46" target="kFLR4k8QPGNa0tkSeMhw-94">
          <mxGeometry relative="1" as="geometry" />
        </mxCell>
        <mxCell id="kFLR4k8QPGNa0tkSeMhw-46" value="Student" style="shape=umlActor;verticalLabelPosition=bottom;verticalAlign=top;html=1;outlineConnect=0;" vertex="1" parent="1">
          <mxGeometry x="700" y="500" width="30" height="60" as="geometry" />
        </mxCell>
        <mxCell id="kFLR4k8QPGNa0tkSeMhw-47" value="View news article" style="ellipse;whiteSpace=wrap;html=1;" vertex="1" parent="1">
          <mxGeometry x="1060" y="350" width="135" height="50" as="geometry" />
        </mxCell>
        <mxCell id="kFLR4k8QPGNa0tkSeMhw-48" value="View event information" style="ellipse;whiteSpace=wrap;html=1;" vertex="1" parent="1">
          <mxGeometry x="897.5" y="390" width="170" height="50" as="geometry" />
        </mxCell>
        <mxCell id="kFLR4k8QPGNa0tkSeMhw-49" value="Sign up for the event" style="ellipse;whiteSpace=wrap;html=1;" vertex="1" parent="1">
          <mxGeometry x="830" y="460" width="175" height="60" as="geometry" />
        </mxCell>
        <mxCell id="kFLR4k8QPGNa0tkSeMhw-56" style="rounded=0;orthogonalLoop=1;jettySize=auto;html=1;endArrow=block;endFill=0;" edge="1" parent="1">
          <mxGeometry relative="1" as="geometry">
            <mxPoint x="714.6" y="670" as="sourcePoint" />
            <mxPoint x="714.6" y="590" as="targetPoint" />
          </mxGeometry>
        </mxCell>
        <mxCell id="kFLR4k8QPGNa0tkSeMhw-53" value="Department&amp;nbsp;&lt;div&gt;worker&lt;/div&gt;" style="shape=umlActor;verticalLabelPosition=bottom;verticalAlign=top;html=1;outlineConnect=0;" vertex="1" parent="1">
          <mxGeometry x="700" y="680" width="30" height="60" as="geometry" />
        </mxCell>
        <mxCell id="kFLR4k8QPGNa0tkSeMhw-59" value="Change department information" style="ellipse;whiteSpace=wrap;html=1;" vertex="1" parent="1">
          <mxGeometry x="830" y="580" width="230" height="50" as="geometry" />
        </mxCell>
        <mxCell id="kFLR4k8QPGNa0tkSeMhw-60" style="rounded=0;orthogonalLoop=1;jettySize=auto;html=1;endArrow=block;startFill=0;entryX=0.011;entryY=0.392;entryDx=0;entryDy=0;entryPerimeter=0;endFill=1;" edge="1" parent="1" source="kFLR4k8QPGNa0tkSeMhw-53" target="kFLR4k8QPGNa0tkSeMhw-59">
          <mxGeometry relative="1" as="geometry">
            <mxPoint x="900" y="690" as="targetPoint" />
          </mxGeometry>
        </mxCell>
        <mxCell id="kFLR4k8QPGNa0tkSeMhw-61" value="Guest" style="shape=umlActor;verticalLabelPosition=bottom;verticalAlign=top;html=1;outlineConnect=0;" vertex="1" parent="1">
          <mxGeometry x="700" y="345" width="30" height="60" as="geometry" />
        </mxCell>
        <mxCell id="kFLR4k8QPGNa0tkSeMhw-62" style="rounded=0;orthogonalLoop=1;jettySize=auto;html=1;endArrow=block;endFill=0;" edge="1" parent="1">
          <mxGeometry relative="1" as="geometry">
            <mxPoint x="714.6" y="490" as="sourcePoint" />
            <mxPoint x="714.6" y="430" as="targetPoint" />
          </mxGeometry>
        </mxCell>
        <mxCell id="kFLR4k8QPGNa0tkSeMhw-69" style="rounded=0;orthogonalLoop=1;jettySize=auto;html=1;endArrow=none;startFill=1;endFill=1;startArrow=block;" edge="1" parent="1" source="kFLR4k8QPGNa0tkSeMhw-67" target="kFLR4k8QPGNa0tkSeMhw-53">
          <mxGeometry relative="1" as="geometry" />
        </mxCell>
        <mxCell id="kFLR4k8QPGNa0tkSeMhw-67" value="Add/Change/Delete news" style="ellipse;whiteSpace=wrap;html=1;" vertex="1" parent="1">
          <mxGeometry x="850" y="640" width="190" height="60" as="geometry" />
        </mxCell>
        <mxCell id="kFLR4k8QPGNa0tkSeMhw-70" style="rounded=0;orthogonalLoop=1;jettySize=auto;html=1;endArrow=none;startFill=1;exitX=0;exitY=0.5;exitDx=0;exitDy=0;endFill=1;startArrow=block;" edge="1" parent="1" source="kFLR4k8QPGNa0tkSeMhw-68" target="kFLR4k8QPGNa0tkSeMhw-53">
          <mxGeometry relative="1" as="geometry">
            <mxPoint x="730" y="710" as="targetPoint" />
          </mxGeometry>
        </mxCell>
        <mxCell id="kFLR4k8QPGNa0tkSeMhw-68" value="Add&lt;span style=&quot;background-color: transparent; color: light-dark(rgb(0, 0, 0), rgb(255, 255, 255));&quot;&gt;/Change/Delete events&lt;/span&gt;" style="ellipse;whiteSpace=wrap;html=1;" vertex="1" parent="1">
          <mxGeometry x="1015" y="700" width="190" height="40" as="geometry" />
        </mxCell>
        <mxCell id="kFLR4k8QPGNa0tkSeMhw-76" style="rounded=0;orthogonalLoop=1;jettySize=auto;html=1;entryX=0.961;entryY=0.326;entryDx=0;entryDy=0;endArrow=block;startFill=0;endFill=1;entryPerimeter=0;" edge="1" parent="1" source="kFLR4k8QPGNa0tkSeMhw-71" target="kFLR4k8QPGNa0tkSeMhw-74">
          <mxGeometry relative="1" as="geometry" />
        </mxCell>
        <mxCell id="kFLR4k8QPGNa0tkSeMhw-77" style="rounded=0;orthogonalLoop=1;jettySize=auto;html=1;entryX=1;entryY=0.5;entryDx=0;entryDy=0;endArrow=block;startFill=0;endFill=1;" edge="1" parent="1" source="kFLR4k8QPGNa0tkSeMhw-71" target="kFLR4k8QPGNa0tkSeMhw-73">
          <mxGeometry relative="1" as="geometry" />
        </mxCell>
        <mxCell id="kFLR4k8QPGNa0tkSeMhw-88" style="rounded=0;orthogonalLoop=1;jettySize=auto;html=1;entryX=1;entryY=0.5;entryDx=0;entryDy=0;endArrow=block;endFill=1;" edge="1" parent="1" source="kFLR4k8QPGNa0tkSeMhw-71" target="kFLR4k8QPGNa0tkSeMhw-72">
          <mxGeometry relative="1" as="geometry" />
        </mxCell>
        <mxCell id="kFLR4k8QPGNa0tkSeMhw-91" style="rounded=0;orthogonalLoop=1;jettySize=auto;html=1;entryX=1;entryY=0.5;entryDx=0;entryDy=0;endArrow=block;endFill=1;" edge="1" parent="1" source="kFLR4k8QPGNa0tkSeMhw-71" target="kFLR4k8QPGNa0tkSeMhw-67">
          <mxGeometry relative="1" as="geometry" />
        </mxCell>
        <mxCell id="kFLR4k8QPGNa0tkSeMhw-71" value="Admin" style="shape=umlActor;verticalLabelPosition=bottom;verticalAlign=top;html=1;outlineConnect=0;" vertex="1" parent="1">
          <mxGeometry x="1440" y="720" width="30" height="60" as="geometry" />
        </mxCell>
        <mxCell id="kFLR4k8QPGNa0tkSeMhw-75" style="rounded=0;orthogonalLoop=1;jettySize=auto;html=1;endArrow=none;startFill=1;endFill=1;startArrow=block;" edge="1" parent="1" source="kFLR4k8QPGNa0tkSeMhw-72" target="kFLR4k8QPGNa0tkSeMhw-53">
          <mxGeometry relative="1" as="geometry" />
        </mxCell>
        <mxCell id="kFLR4k8QPGNa0tkSeMhw-72" value="Add/Change/Delete location" style="ellipse;whiteSpace=wrap;html=1;" vertex="1" parent="1">
          <mxGeometry x="870" y="730" width="180" height="60" as="geometry" />
        </mxCell>
        <mxCell id="kFLR4k8QPGNa0tkSeMhw-73" value="Add/Delete department workers" style="ellipse;whiteSpace=wrap;html=1;" vertex="1" parent="1">
          <mxGeometry x="960" y="890" width="160" height="60" as="geometry" />
        </mxCell>
        <mxCell id="kFLR4k8QPGNa0tkSeMhw-74" value="Add/Delete students" style="ellipse;whiteSpace=wrap;html=1;" vertex="1" parent="1">
          <mxGeometry x="917.5" y="820" width="150" height="55" as="geometry" />
        </mxCell>
        <mxCell id="kFLR4k8QPGNa0tkSeMhw-80" value="View archive events" style="ellipse;whiteSpace=wrap;html=1;" vertex="1" parent="1">
          <mxGeometry x="1025" y="440" width="180" height="50" as="geometry" />
        </mxCell>
        <mxCell id="kFLR4k8QPGNa0tkSeMhw-82" style="edgeStyle=orthogonalEdgeStyle;rounded=0;orthogonalLoop=1;jettySize=auto;html=1;exitX=0.5;exitY=1;exitDx=0;exitDy=0;" edge="1" parent="1" source="kFLR4k8QPGNa0tkSeMhw-67" target="kFLR4k8QPGNa0tkSeMhw-67">
          <mxGeometry relative="1" as="geometry" />
        </mxCell>
        <mxCell id="kFLR4k8QPGNa0tkSeMhw-85" value="Rate event" style="ellipse;whiteSpace=wrap;html=1;" vertex="1" parent="1">
          <mxGeometry x="1090" y="560" width="130" height="50" as="geometry" />
        </mxCell>
        <mxCell id="kFLR4k8QPGNa0tkSeMhw-90" style="rounded=0;orthogonalLoop=1;jettySize=auto;html=1;endArrow=block;endFill=1;entryX=1;entryY=0.5;entryDx=0;entryDy=0;" edge="1" parent="1" source="kFLR4k8QPGNa0tkSeMhw-71" target="kFLR4k8QPGNa0tkSeMhw-68">
          <mxGeometry relative="1" as="geometry">
            <mxPoint x="1230" y="720" as="targetPoint" />
          </mxGeometry>
        </mxCell>
        <mxCell id="kFLR4k8QPGNa0tkSeMhw-92" style="rounded=0;orthogonalLoop=1;jettySize=auto;html=1;entryX=0.952;entryY=0.667;entryDx=0;entryDy=0;entryPerimeter=0;endArrow=block;endFill=1;" edge="1" parent="1" source="kFLR4k8QPGNa0tkSeMhw-71" target="kFLR4k8QPGNa0tkSeMhw-59">
          <mxGeometry relative="1" as="geometry" />
        </mxCell>
        <mxCell id="kFLR4k8QPGNa0tkSeMhw-94" value="View visited events" style="ellipse;whiteSpace=wrap;html=1;" vertex="1" parent="1">
          <mxGeometry x="1025" y="510" width="130" height="40" as="geometry" />
        </mxCell>
        <mxCell id="kFLR4k8QPGNa0tkSeMhw-96" value="Student parliament of faculty" style="text;html=1;align=center;verticalAlign=middle;whiteSpace=wrap;rounded=0;" vertex="1" parent="1">
          <mxGeometry x="787.5" y="310" width="130" height="30" as="geometry" />
        </mxCell>
      </root>
    </mxGraphModel>
  </diagram>
</mxfile>
